<svg xmlns="http://www.w3.org/2000/svg" viewBox="0 0 1600 900"><defs><linearGradient id="g1" x1="0" x2="1" y1="0" y2="1"><stop offset="0%" stop-color="#ead8c4"/><stop offset="50%" stop-color="#fff6ec"/><stop offset="100%" stop-color="#b6855c"/></linearGradient></defs><rect width="1600" height="900" fill="url(#g1)"/><rect x="120" y="210" width="980" height="430" rx="22" fill="#d5b79a" opacity="0.9"/><rect x="240" y="300" width="110" height="110" fill="#fdf6ef" opacity="0.7"/><rect x="390" y="300" width="110" height="110" fill="#fdf6ef" opacity="0.7"/><rect x="540" y="300" width="110" height="110" fill="#fdf6ef" opacity="0.7"/><rect x="690" y="300" width="110" height="110" fill="#fdf6ef" opacity="0.7"/><rect x="840" y="300" width="110" height="110" fill="#fdf6ef" opacity="0.7"/><rect x="240" y="450" width="110" height="110" fill="#fdf6ef" opacity="0.7"/><rect x="390" y="450" width="110" height="110" fill="#fdf6ef" opacity="0.7"/><rect x="540" y="450" width="110" height="110" fill="#fdf6ef" opacity="0.7"/><rect x="690" y="450" width="110" height="110" fill="#fdf6ef" opacity="0.7"/><rect x="840" y="450" width="110" height="110" fill="#fdf6ef" opacity="0.7"/><rect x="1130" y="270" width="280" height="240" rx="28" fill="#ffffff" opacity="0.3"/><rect x="0" y="720" width="1600" height="180" fill="#8a5d38" opacity="0.23"/></svg>